# File created by Blade
# Date/Time:  Wed Apr 08 17:04:22 2015
# Frame Rate: 120.000 fps
#------------------------------------------------------
:FULLY-SPECIFIED
:DEGREES
1690
root 4.106842 36.166520 3.589761 -82.241626 -87.101056 108.874399
Spine -27.969988 -2.796150 -6.096167
Head 29.403606 -9.050301 2.476109
LeftShoulder -7.084100 15.933115 28.235776
LeftArm 51.123740 25.425894 -40.058975
LeftForeArm 13.320941 -0.000000 91.196962
LeftHand -13.160775 -0.000000 -14.208571
LeftHandThumb1 -26.253704 0.000000 33.147579
RightShoulder -27.834541 -54.377076 -7.028382
RightArm 46.983499 6.417555 60.255514
RightForeArm 22.846203 -0.000000 73.054410
RightHand 2.796180 -0.000000 7.455957
RightHandThumb1 -24.326973 -0.000000 -32.862282
LeftUpLeg -30.074846 9.101986 -2.716985
LeftLeg 15.453707 -0.000000 -0.000000
LeftFoot -11.881730 4.812258 -14.308023
LeftToeBase 8.656948 -0.000000 -0.000000
RightUpLeg -28.773481 -8.689628 -8.415231
RightLeg 12.324842 -0.000000 -0.000000
RightFoot -11.954105 -1.774271 21.296872
RightToeBase 14.289517 -0.000000 -0.000000
1691
root 4.117900 36.169225 3.573153 -81.222451 -87.128810 107.904992
Spine -27.985378 -2.728105 -6.060811
Head 29.088035 -8.630149 2.766573
LeftShoulder -7.327964 16.271765 28.016584
LeftArm 49.391744 24.206546 -40.127765
LeftForeArm 13.426962 -0.000000 90.874398
LeftHand -13.199565 -0.000000 -14.241024
LeftHandThumb1 -26.253704 0.000000 33.147579
RightShoulder -28.138868 -54.054970 -6.739141
RightArm 47.219349 7.545206 59.947568
RightForeArm 22.796052 -0.000000 71.976856
RightHand 2.851439 -0.000000 7.278746
RightHandThumb1 -24.326973 -0.000000 -32.862282
LeftUpLeg -30.137981 9.088621 -2.674894
LeftLeg 15.429358 -0.000000 -0.000000
LeftFoot -11.846320 4.784854 -14.369264
LeftToeBase 8.738396 -0.000000 -0.000000
RightUpLeg -28.793612 -8.656802 -8.377399
RightLeg 12.261149 -0.000000 -0.000000
RightFoot -11.957173 -1.857197 21.278192
RightToeBase 14.267624 -0.000000 -0.000000
1692
root 4.128461 36.171261 3.559035 -80.829196 -87.140462 107.544552
Spine -27.976128 -2.668553 -6.024591
Head 28.774769 -8.165665 3.026402
LeftShoulder -7.613170 16.664457 27.717695
LeftArm 47.715722 22.905966 -40.122990
LeftForeArm 13.697926 -0.000000 90.526776
LeftHand -13.269428 0.000000 -14.175397
LeftHandThumb1 -26.253704 0.000000 33.147579
RightShoulder -28.289953 -53.685128 -6.574940
RightArm 47.404177 8.669033 59.765301
RightForeArm 22.641013 -0.000000 70.864718
RightHand 2.815499 -0.000000 7.050744
RightHandThumb1 -24.326973 -0.000000 -32.862282
LeftUpLeg -30.169182 9.078857 -2.648549
LeftLeg 15.385477 -0.000000 -0.000000
LeftFoot -11.817379 4.799056 -14.397208
LeftToeBase 8.762177 -0.000000 -0.000000
RightUpLeg -28.812324 -8.612517 -8.358817
RightLeg 12.215350 -0.000000 -0.000000
RightFoot -11.966891 -1.903672 21.285726
RightToeBase 14.340222 -0.000000 -0.000000
1693
root 4.137795 36.173406 3.544278 -80.278450 -87.162426 107.020715
Spine -27.959349 -2.607980 -5.977916
Head 28.466517 -7.682131 3.263266
LeftShoulder -7.922024 17.095287 27.368293
LeftArm 46.225496 21.533796 -39.908211
LeftForeArm 13.811657 -0.000000 90.117389
LeftHand -13.473118 -0.000000 -14.063091
LeftHandThumb1 -26.253704 0.000000 33.147579
RightShoulder -28.500207 -53.377232 -6.354931
RightArm 47.640650 9.777755 59.509876
RightForeArm 22.611031 0.000000 69.691414
RightHand 2.918823 -0.000000 6.859036
RightHandThumb1 -24.326973 -0.000000 -32.862282
LeftUpLeg -30.195603 9.072179 -2.612729
LeftLeg 15.344608 -0.000000 -0.000000
LeftFoot -11.782836 4.803073 -14.417661
LeftToeBase 8.778594 -0.000000 -0.000000
RightUpLeg -28.816495 -8.564998 -8.334753
RightLeg 12.158294 -0.000000 -0.000000
RightFoot -11.963535 -1.963396 21.290421
RightToeBase 14.347519 -0.000000 -0.000000
